<svg width="162" height="336" viewBox="0 0 162 336" fill="none" xmlns="http://www.w3.org/2000/svg">
<path d="M-2.56567e-06 201C-3.10992e-06 207.172 1.75887 213.284 5.17619 218.986C8.59351 224.688 13.6024 229.87 19.9167 234.234C26.2311 238.598 33.7274 242.06 41.9775 244.422C50.2277 246.784 59.0701 248 68 248L68 201L-2.56567e-06 201Z" fill="#FABDBD"/>
<path d="M3.57323e-06 201C4.1059e-06 194.959 1.75888 188.978 5.1762 183.397C8.59352 177.816 13.6024 172.745 19.9167 168.473C26.2311 164.202 33.7274 160.813 41.9775 158.502C50.2277 156.19 59.0701 155 68 155L68 201L3.57323e-06 201Z" fill="#FABDBD"/>
<path d="M73 335.934L87.4338 321.5L73 307.066L58.5663 321.5L73 335.934ZM70.5 155L70.5 321.5L75.5 321.5L75.5 155L70.5 155Z" fill="white"/>
<path d="M15 200C15 204.202 16.164 208.363 18.4254 212.246C20.6869 216.128 24.0016 219.656 28.1802 222.627C32.3588 225.599 37.3196 227.956 42.7792 229.564C48.2389 231.172 54.0905 232 60 232L60 200L15 200Z" fill="white"/>
<path d="M15 200C15 196.06 16.164 192.159 18.4254 188.519C20.6869 184.88 24.0016 181.573 28.1802 178.787C32.3588 176.001 37.3196 173.791 42.7792 172.284C48.2389 170.776 54.0905 170 60 170L60 200L15 200Z" fill="white"/>
<path d="M81 0.566243L66.5662 15L81 29.4338L95.4338 15L81 0.566243ZM83.5 248L83.5 15L78.5 15L78.5 248L83.5 248Z" fill="white"/>
<path d="M146 86C146 91.7782 144.448 97.4997 141.433 102.838C138.417 108.176 133.998 113.027 128.426 117.113C122.855 121.198 116.241 124.439 108.961 126.651C101.681 128.862 93.8793 130 86 130L86 86H146Z" fill="#FABDBD"/>
<path d="M146 88.5C146 82.5249 144.448 76.6082 141.433 71.0879C138.417 65.5676 133.998 60.5517 128.426 56.3266C122.855 52.1016 116.241 48.7501 108.961 46.4635C101.681 44.1769 93.8793 43 86 43L86 88.5H146Z" fill="#FABDBD"/>
<path d="M135 85C135 89.2023 134.017 93.3634 132.107 97.2459C130.198 101.128 127.399 104.656 123.87 107.627C120.341 110.599 116.152 112.956 111.542 114.564C106.932 116.172 101.99 117 97 117L97 85L135 85Z" fill="white"/>
<path d="M135 85C135 81.0603 134.017 77.1593 132.107 73.5195C130.198 69.8797 127.399 66.5726 123.87 63.7868C120.341 61.0011 116.152 58.7913 111.542 57.2836C106.932 55.776 101.99 55 97 55L97 85.0001L135 85Z" fill="white"/>
<path d="M162 189C162 181.252 160.034 173.58 156.215 166.422C152.395 159.263 146.797 152.759 139.74 147.281C132.683 141.802 124.305 137.456 115.084 134.491C105.863 131.526 95.9805 130 86 130L86 189H162Z" fill="#FABDBD"/>
<path d="M162 191.5C162 198.92 160.034 206.267 156.215 213.122C152.395 219.977 146.797 226.205 139.74 231.452C132.683 236.698 124.305 240.86 115.084 243.699C105.863 246.539 95.9805 248 86 248L86 191.5H162Z" fill="#FABDBD"/>
<path d="M150 189C150 194.384 148.629 199.716 145.966 204.69C143.302 209.664 139.398 214.184 134.477 217.991C129.555 221.799 123.712 224.819 117.282 226.879C110.852 228.94 103.96 230 97 230L97 189L150 189Z" fill="white"/>
<path d="M150 189C150 183.353 148.629 177.762 145.966 172.545C143.302 167.328 139.398 162.587 134.477 158.594C129.555 154.601 123.712 151.434 117.282 149.273C110.852 147.112 103.96 146 97 146L97 189L150 189Z" fill="white"/>
</svg>
